<svg xmlns="http://www.w3.org/2000/svg" viewBox="0 0 977.06 73.85"><defs><style>.cls-1{fill:#1a1a1a}</style></defs><g id="Laag_2" data-name="Laag 2"><g id="Laag_1-2" data-name="Laag 1"><path class="cls-1" d="M21.56 72.37c-2.46 0-3.54-1.08-3.54-3.54V20.48H3.54C1.08 20.48 0 19.4 0 16.94V5c0-2.44 1.08-3.52 3.54-3.52h52c2.46 0 3.54 1.08 3.54 3.52v11.94c0 2.46-1.08 3.54-3.55 3.54H41.06v48.35c0 2.46-1.08 3.54-3.54 3.54zM79.56 72.37c-2.46 0-3.55-1.08-3.55-3.54V5c0-2.46 1.09-3.54 3.55-3.54h15.26c2.46 0 3.55 1.08 3.55 3.54v21.39h16.44V5c0-2.46 1.08-3.54 3.54-3.54h15.27c2.46 0 3.54 1.08 3.54 3.54v63.83c0 2.46-1.08 3.54-3.54 3.54h-15.27c-2.46 0-3.54-1.08-3.54-3.54V47H98.37v21.83c0 2.46-1.09 3.54-3.55 3.54zM161.68 72.37c-2.47 0-3.55-1.08-3.55-3.54V5c0-2.46 1.08-3.54 3.55-3.54h45.68c2.47 0 3.55 1.08 3.55 3.54v11.54c0 2.46-1.08 3.55-3.55 3.55h-27.17v7.58h19.2c2.46 0 3.54 1.08 3.54 3.54v10.54c0 2.46-1.08 3.54-3.54 3.54h-19.2v8.47h27.17c2.47 0 3.55 1.09 3.55 3.55v11.52c0 2.46-1.08 3.54-3.55 3.54zM284.26 73.85c-22.94 0-28.55-8.07-28.55-20.09V37.81c0-2.56 1.08-3.54 3.54-3.54h14.28c2.46 0 3.55 1 3.55 3.54v12c0 2.66.88 4.63 7 4.63 5.71 0 6.5-2 6.5-4.63V5c0-2.46 1.08-3.54 3.54-3.54h15.46c2.46 0 3.55 1.08 3.55 3.54v48.76c-.01 12.02-5.73 20.09-28.87 20.09zM363.13 73.85c-24.61 0-30.62-8.07-30.62-20.09V20.19c0-12 6-20.19 30.62-20.19s30.53 8.17 30.53 20.19v33.57c0 12.02-5.91 20.09-30.53 20.09zm0-19c7.19 0 8.27-2 8.27-4.63V23.73c0-2.56-1.08-4.53-8.27-4.53s-8.27 2-8.27 4.53v26.49c0 2.66 1.14 4.63 8.27 4.63zM417.09 72.37c-2.46 0-3.54-1.08-3.54-3.54V5c0-2.46 1.08-3.54 3.54-3.54h31.41c12.9 0 18.91 4.72 18.91 15.06v4.73c0 5.51-1.87 9-5.81 10.63 8.47.79 12.4 5.62 12.4 15.27v9c0 11-6 16.15-19.1 16.15zm18.61-43.52h8.37c2.56 0 3.74-1.28 3.74-3.94v-2.75c0-2.66-1.18-3.94-3.74-3.94h-8.37zm0 26.78h12.8c2.56 0 3.74-1.28 3.74-3.94v-3.84c0-2.65-1.18-3.84-3.74-3.84h-12.8zM495.86 72.37c-2.46 0-3.54-1.08-3.54-3.54V5c0-2.46 1.08-3.54 3.54-3.54h43.92c2.46 0 3.54 1.08 3.54 3.54v11.74c0 2.46-1.08 3.54-3.54 3.54h-25.11v10.24h17.13c2.46 0 3.55 1.09 3.55 3.55v11.81c0 2.47-1.09 3.55-3.55 3.55h-17.13v19.4c0 2.46-1.08 3.54-3.55 3.54zM559 68.83V57.11c0-2.46 1.08-3.54 3.54-3.54h9.75V20.48h-9.75c-2.46 0-3.54-1.08-3.54-3.54V5c0-2.46 1.08-3.54 3.54-3.54h42c2.39.02 3.46 1.1 3.46 3.54v11.94c0 2.46-1.08 3.54-3.54 3.54h-9.55v33.09h9.55c2.46 0 3.54 1.08 3.54 3.54v11.72c0 2.46-1.08 3.54-3.54 3.54h-42c-2.4 0-3.46-1.08-3.46-3.54zM645 72.37c-2.47 0-3.55-1.08-3.55-3.54V20.48H627c-2.47 0-3.55-1.08-3.55-3.54V5c0-2.46 1.08-3.54 3.55-3.54h52c2.46 0 3.54 1.08 3.54 3.54v11.94c0 2.46-1.08 3.54-3.54 3.54h-14.47v48.35c0 2.46-1.08 3.54-3.54 3.54zM717 72.37c-2.46 0-3.54-1.08-3.54-3.54V20.48H699c-2.46 0-3.54-1.08-3.54-3.54V5c0-2.46 1.08-3.54 3.54-3.54h52c2.46 0 3.55 1.08 3.55 3.54v11.94c0 2.46-1.09 3.54-3.55 3.54h-14.49v48.35c0 2.46-1.09 3.54-3.55 3.54zM775 72.37c-2.46 0-3.55-1.08-3.55-3.54V5c0-2.46 1.09-3.54 3.55-3.54h45.7c2.46 0 3.54 1.08 3.54 3.54v11.54c0 2.46-1.08 3.55-3.54 3.55h-27.18v7.58h19.2c2.46 0 3.54 1.08 3.54 3.54v10.54c0 2.46-1.08 3.54-3.54 3.54h-19.2v8.47h27.18c2.46 0 3.54 1.09 3.54 3.55v11.52c0 2.46-1.08 3.54-3.54 3.54zM846.79 72.37c-2.46 0-3.55-1.08-3.55-3.54V5c0-2.46 1.09-3.54 3.55-3.54h32.79C894.35 1.48 899 8.17 899 17.92v4.53c0 5.51-1.38 9.45-5.51 11.23 7.19.78 11.91 6 11.91 14.27v20.88c0 2.46-1.08 3.54-3.54 3.54h-15.29c-2.46 0-3.55-1.08-3.55-3.54V53.76c0-2.95-1-4.23-3.74-4.23H865.5v19.3c0 2.46-1.09 3.54-3.55 3.54zM865.5 31.8h7.38c3.45 0 4.33-2 4.33-4.62v-3.35c0-2.66-.88-4.63-4.33-4.63h-7.38zM925.56 72.37c-2.46 0-3.55-1.08-3.55-3.54V57.31c0-2.46 1.09-3.55 3.55-3.55h26.49a2.56 2.56 0 002.56-2.85c0-2.27-.89-3.15-2.56-3.35l-14.77-2.07C928 44.11 922 40.17 922 29.15V18.81c0-11.23 7.6-17.33 20.4-17.33H970c2.46 0 3.54 1.08 3.54 3.54v11.72c0 2.46-1.08 3.54-3.54 3.54h-23c-1.67 0-2.65 1.19-2.65 3a2.9 2.9 0 002.65 3.11l14.68 2c9.25 1.38 15.36 5.32 15.36 16.34V55c0 11.23-7.68 17.33-20.39 17.33z"/></g></g></svg>